<svg width="24" height="20" viewBox="0 0 24 20" fill="none" xmlns="http://www.w3.org/2000/svg">
<path d="M16.7251 5.31861C16.7251 7.96804 14.5189 10.1372 11.7706 10.1372C9.0223 10.1372 6.81604 7.96804 6.81604 5.31861C6.81604 2.66919 9.0223 0.5 11.7706 0.5C14.5189 0.5 16.7251 2.66919 16.7251 5.31861Z" stroke="#99BBC6"/>
<path d="M4.35417 19.5H4.36757H4.38096H4.39435H4.40773H4.42112H4.43449H4.44787H4.46124H4.47461H4.48797H4.50133H4.51469H4.52804H4.54139H4.55474H4.56809H4.58143H4.59477H4.6081H4.62144H4.63477H4.64809H4.66142H4.67474H4.68806H4.70138H4.71469H4.728H4.74131H4.75462H4.76793H4.78123H4.79453H4.80783H4.82112H4.83442H4.84771H4.861H4.87429H4.88757H4.90086H4.91414H4.92742H4.9407H4.95398H4.96725H4.98053H4.9938H5.00707H5.02034H5.03361H5.04687H5.06014H5.0734H5.08666H5.09993H5.11319H5.12645H5.1397H5.15296H5.16622H5.17947H5.19273H5.20598H5.21923H5.23249H5.24574H5.25899H5.27224H5.28549H5.29874H5.31199H5.32524H5.33849H5.35174H5.36498H5.37823H5.39148H5.40473H5.41797H5.43122H5.44447H5.45772H5.47096H5.48421H5.49746H5.51071H5.52396H5.53721H5.55046H5.56371H5.57696H5.59021H5.60346H5.61671H5.62997H5.64322H5.65648H5.66973H5.68299H5.69625H5.7095H5.72276H5.73602H5.74929H5.76255H5.77581H5.78908H5.80234H5.81561H5.82888H5.84215H5.85542H5.8687H5.88197H5.89525H5.90853H5.92181H5.93509H5.94838H5.96166H5.97495H5.98824H6.00153H6.01483H6.02812H6.04142H6.05472H6.06802H6.08133H6.09464H6.10795H6.12126H6.13457H6.14789H6.16121H6.17453H6.18786H6.20118H6.21451H6.22785H6.24118H6.25452H6.26787H6.28121H6.29456H6.30791H6.32126H6.33462H6.34798H6.36135H6.37471H6.38808H6.40146H6.41484H6.42822H6.4416H6.45499H6.46838H6.48178H6.49518H6.50858H6.52199H6.5354H6.54881H6.56223H6.57565H6.58908H6.60251H6.61595H6.62939H6.64283H6.65628H6.66973H6.68319H6.69665H6.71012H6.72359H6.73706H6.75054H6.76402H6.77751H6.79101H6.80451H6.81801H6.83152H6.84503H6.85855H6.87207H6.8856H6.89914H6.91267H6.92622H6.93977H6.95332H6.96688H6.98045H6.99402H7.0076H7.02118H7.03477H7.04836H7.06196H7.07556H7.08917H7.10279H7.11641H7.13004H7.14368H7.15732H7.17096H7.18462H7.19827H7.21194H7.22561H7.23929H7.25297H7.26666H7.28036H7.29406H7.30777H7.32149H7.33521H7.34894H7.36268H7.37642H7.39017H7.40393H7.4177H7.43147H7.44525H7.45903H7.47282H7.48662H7.50043H7.51424H7.52807H7.54189H7.55573H7.56957H7.58343H7.59728H7.61115H7.62502H7.63891H7.6528H7.66669H7.6806H7.69451H7.70843H7.72236H7.7363H7.75024H7.76419H7.77815H7.79212H7.8061H7.82009H7.83408H7.84808H7.86209H7.87611H7.89014H7.90418H7.91822H7.93228H7.94634H7.96041H7.97449H7.98858H8.00268H8.01678H8.0309H8.04502H8.05916H8.0733H8.08745H8.10161H8.11579H8.12997H8.14416H8.15835H8.17256H8.18678H8.20101H8.21525H8.22949H8.24375H8.25801H8.27229H8.28658H8.30087H8.31518H8.32949H8.34382H8.35815H8.3725H8.38686H8.40122H8.4156H8.42998H8.44438H8.45879H8.47321H8.48763H8.50207H8.51652H8.53098H8.54545H8.55994H8.57443H8.58893H8.60345H8.61797H8.63251H8.64705H8.66161H8.67618H8.69076H8.70535H8.71995H8.73457H8.74919H8.76383H8.77848H8.79314H8.80781H8.82249H8.83719H8.85189H8.86661H8.88134H8.89608H8.91083H8.9256H8.94038H8.95516H8.96997H8.98478H8.9996H9.01444H9.02929H9.04415H9.05903H9.07391H9.08881H9.10372H9.11865H9.13358H9.14853H9.1635H9.17847H9.19346H9.20846H9.22347H9.2385H9.25354H9.26859H9.28365H9.29873H9.31382H9.32893H9.34404H9.35917H9.37432H9.38947H9.40464H9.41983H9.43503H9.45024H9.46546H9.4807H9.49595H9.51122H9.5265H9.54179H9.5571H9.57242H9.58775H9.6031H9.61847H9.63384H9.64923H9.66464H9.68006H9.69549H9.71094H9.72641H9.74188H9.75737H9.77288H9.7884H9.80394H9.81949H9.83505H9.85063H9.86623H9.88184H9.89746H9.9131H9.92875H9.94442H9.96011H9.97581H9.99152H10.0072H10.023H10.0388H10.0545H10.0703H10.0861H10.102H10.1178H10.1336H10.1495H10.1654H10.1813H10.1972H10.2131H10.2291H10.2451H10.261H10.277H10.293H10.3091H10.3251H10.3412H10.3573H10.3733H10.3895H10.4056H10.4217H10.4379H10.4541H10.4702H10.4865H10.5027H10.5189H10.5352H10.5515H10.5677H10.5841H10.6004H10.6167H10.6331H10.6495H10.6659H10.6823H10.6987H10.7151H10.7316H10.7481H10.7646H10.7811H10.7976H10.8142H10.8308H10.8473H10.8639H10.8806H10.8972H10.9139H10.9305H10.9472H10.9639H10.9807H10.9974H11.0142H11.031H11.0478H11.0646H11.0814H11.0983H11.1152H11.1321H11.149H11.1659H11.1828H11.1998H11.2168H11.2338H11.2508H11.2679H11.2849H11.302H11.3191H11.3362H11.3534H11.3705H11.3877H11.4049H11.4221H11.4394H11.4566H11.4739H11.4912H11.5085H11.5258H11.5432H11.5605H11.5779H11.5953H11.6128H11.6302H11.6477H11.6652H11.6827H11.7002H11.7178H11.7353H11.7529H11.7705H11.7881H11.8057H11.8233H11.8409H11.8585H11.8761H11.8936H11.9112H11.9287H11.9462H11.9637H11.9812H11.9987H12.0162H12.0337H12.0511H12.0686H12.086H12.1035H12.1209H12.1383H12.1557H12.1731H12.1905H12.2079H12.2252H12.2426H12.2599H12.2772H12.2946H12.3119H12.3292H12.3465H12.3638H12.381H12.3983H12.4155H12.4328H12.45H12.4672H12.4844H12.5016H12.5188H12.536H12.5532H12.5704H12.5875H12.6046H12.6218H12.6389H12.656H12.6731H12.6902H12.7073H12.7244H12.7414H12.7585H12.7755H12.7925H12.8096H12.8266H12.8436H12.8606H12.8776H12.8945H12.9115H12.9284H12.9454H12.9623H12.9792H12.9962H13.0131H13.03H13.0468H13.0637H13.0806H13.0974H13.1143H13.1311H13.1479H13.1647H13.1815H13.1983H13.2151H13.2319H13.2487H13.2654H13.2822H13.2989H13.3156H13.3323H13.349H13.3657H13.3824H13.3991H13.4158H13.4324H13.4491H13.4657H13.4823H13.4989H13.5156H13.5322H13.5487H13.5653H13.5819H13.5984H13.615H13.6315H13.6481H13.6646H13.6811H13.6976H13.7141H13.7306H13.747H13.7635H13.7799H13.7964H13.8128H13.8292H13.8456H13.862H13.8784H13.8948H13.9112H13.9276H13.9439H13.9602H13.9766H13.9929H14.0092H14.0255H14.0418H14.0581H14.0744H14.0906H14.1069H14.1231H14.1394H14.1556H14.1718H14.188H14.2042H14.2204H14.2366H14.2528H14.2689H14.2851H14.3012H14.3174H14.3335H14.3496H14.3657H14.3818H14.3979H14.4139H14.43H14.4461H14.4621H14.4781H14.4942H14.5102H14.5262H14.5422H14.5582H14.5741H14.5901H14.6061H14.622H14.6379H14.6539H14.6698H14.6857H14.7016H14.7175H14.7334H14.7492H14.7651H14.781H14.7968H14.8126H14.8285H14.8443H14.8601H14.8759H14.8917H14.9074H14.9232H14.939H14.9547H14.9704H14.9862H15.0019H15.0176H15.0333H15.049H15.0647H15.0803H15.096H15.1117H15.1273H15.1429H15.1586H15.1742H15.1898H15.2054H15.221H15.2365H15.2521H15.2677H15.2832H15.2987H15.3143H15.3298H15.3453H15.3608H15.3763H15.3918H15.4073H15.4227H15.4382H15.4536H15.4691H15.4845H15.4999H15.5153H15.5307H15.5461H15.5615H15.5768H15.5922H15.6075H15.6229H15.6382H15.6535H15.6689H15.6842H15.6995H15.7147H15.73H15.7453H15.7605H15.7758H15.791H15.8063H15.8215H15.8367H15.8519H15.8671H15.8823H15.8974H15.9126H15.9278H15.9429H15.958H15.9732H15.9883H16.0034H16.0185H16.0336H16.0487H16.0637H16.0788H16.0938H16.1089H16.1239H16.1389H16.154H16.169H16.184H16.199H16.2139H16.2289H16.2439H16.2588H16.2738H16.2887H16.3036H16.3185H16.3334H16.3483H16.3632H16.3781H16.393H16.4078H16.4227H16.4375H16.4523H16.4672H16.482H16.4968H16.5116H16.5264H16.5411H16.5559H16.5707H16.5854H16.6001H16.6149H16.6296H16.6443H16.659H16.6737H16.6884H16.7031H16.7177H16.7324H16.747H16.7617H16.7763H16.7909H16.8055H16.8201H16.8347H16.8493H16.8639H16.8785H16.893H16.9076H16.9221H16.9366H16.9512H16.9657H16.9802H16.9947H17.0092H17.0236H17.0381H17.0526H17.067H17.0814H17.0959H17.1103H17.1247H17.1391H17.1535H17.1679H17.1823H17.1966H17.211H17.2253H17.2397H17.254H17.2683H17.2826H17.2969H17.3112H17.3255H17.3398H17.3541H17.3683H17.3826H17.3968H17.4111H17.4253H17.4395H17.4537H17.4679H17.4821H17.4963H17.5104H17.5246H17.5387H17.5529H17.567H17.5811H17.5953H17.6094H17.6235H17.6376H17.6516H17.6657H17.6798H17.6938H17.7079H17.7219H17.7359H17.75H17.764H17.778H17.792H17.8059H17.8199H17.8339H17.8478H17.8618H17.8757H17.8896H17.9036H17.9175H17.9314H17.9453H17.9592H17.973H17.9869H18.0008H18.0146H18.0285H18.0423H18.0561H18.0699H18.0837H18.0975H18.1113H18.1251H18.1389H18.1526H18.1664H18.1801H18.1939H18.2076H18.2213H18.235H18.2487H18.2624H18.2761H18.2898H18.3034H18.3171H18.3307H18.3444H18.358H18.3716H18.3852H18.3988H18.4124H18.426H18.4396H18.4532H18.4667H18.4803H18.4938H18.5074H18.5209H18.5344H18.5479H18.5614H18.5749H18.5884H18.6019H18.6153H18.6288H18.6422H18.6557H18.6691H18.6825H18.6959H18.7093H18.7227H18.7361H18.7495H18.7629H18.7762H18.7896H18.8029H18.8163H18.8296H18.8429H18.8562H18.8695H18.8828H18.8961H18.9094H18.9226H18.9359H18.9491H18.9624H18.9756H18.9888H19.002H19.0152H19.0284H19.0416H19.0548H19.068H19.0812H19.0943H19.1075H19.1206H19.1337H19.1468H19.16H19.1731H19.1861H19.1992H19.2123H19.2254H19.2384H19.2515H19.2645H19.2776H19.2906H19.3036H19.3166H19.3296H19.3426H19.3556H19.3686H19.3815H19.3945H19.4075H19.4204H19.4333H19.4463H19.4592H19.4721H19.485H19.4979H19.5108H19.5236H19.5365H19.5503H19.5639H19.5775H19.5911H19.6045H19.6179H19.6312H19.6445H19.6577H19.6708H19.6838H19.6967H19.7096H19.7224H19.7352H19.7478H19.7604H19.773H19.7854H19.7978H19.8101H19.8224H19.8345H19.8466H19.8587H19.8707H19.8826H19.8944H19.9062H19.9179H19.9295H19.9411H19.9526H19.964H19.9754H19.9867H19.9979H20.0091H20.0202H20.0312H20.0422H20.0531H20.064H20.0748H20.0855H20.0962H20.1068H20.1173H20.1278H20.1382H20.1485H20.1588H20.169H20.1792H20.1893H20.1993H20.2093H20.2192H20.2291H20.2389H20.2486H20.2583H20.2679H20.2775H20.287H20.2965H20.3059H20.3152H20.3245H20.3337H20.3428H20.352H20.361H20.37H20.3789H20.3878H20.3966H20.4054H20.4141H20.4228H20.4314H20.44H20.4485H20.4569H20.4653H20.4736H20.4819H20.4902H20.4983H20.5065H20.5146H20.5226H20.5306H20.5385H20.5464H20.5542H20.562H20.5697H20.5774H20.585H20.5926H20.6001H20.6076H20.615H20.6224H20.6297H20.637H20.6443H20.6515H20.6586H20.6657H20.6728H20.6798H20.6867H20.6937H20.7005H20.7074H20.7141H20.7209H20.7276H20.7342H20.7408H20.7474H20.7539H20.7604H20.7668H20.7732H20.7796H20.7859H20.7921H20.7983H20.8045H20.8107H20.8168H20.8228H20.8289H20.8348H20.8408H20.8467H20.8525H20.8584H20.8641H20.8699H20.8756H20.8813H20.8869H20.8925H20.8981H20.9036H20.9091H20.9145H20.9199H20.9253H20.9306H20.936H20.9412H20.9465H20.9517H20.9568H20.962H20.9671H20.9721H20.9772H20.9822H20.9871H20.9921H20.997H21.0019H21.0067H21.0115H21.0163H21.021H21.0257H21.0304H21.0351H21.0397H21.0443H21.0489H21.0534H21.0579H21.0624H21.0668H21.0713H21.0757H21.08H21.0844H21.0887H21.093H21.0972H21.1015H21.1057H21.1099H21.114H21.1182H21.1223H21.1263H21.1304H21.1344H21.1384H21.1424H21.1464H21.1503H21.1542H21.1581H21.162H21.1659H21.1697H21.1735H21.1773H21.181H21.1848H21.1885H21.1922H21.1959H21.1995H21.2032H21.2068H21.2104H21.214H21.2175H21.2211H21.2246H21.2281H21.2316H21.2351H21.2386H21.242H21.2454H21.2488H21.2522H21.2556H21.259H21.2623H21.2657H21.269H21.2723H21.2756H21.2788H21.2821H21.2853H21.2886H21.2918H21.295H21.2982H21.3014H21.3046H21.3077H21.3109H21.314H21.3171H21.3202H21.3234H21.3264H21.3295H21.3326H21.3357H21.3387H21.3418H21.3448H21.3479H21.3509H21.3539H21.3569H21.3599H21.3629H21.3659H21.3689H21.3718H21.3748H21.3778H21.3807H21.3837H21.3866H21.3896H21.3925H21.3954H21.3984H21.4013H21.4042H21.4071H21.4101H21.413H21.4159H21.4188H21.4217H21.4246H21.4275H21.4304H21.4333H21.4362H21.4391H21.442H21.4449H21.4478H21.4507H21.4536H21.4565H21.4594H21.4623H21.4652H21.4682H21.4711H21.474H21.4769H21.4798H21.4827H21.4857H21.4886H21.4916H21.4945H21.4974H21.5004H21.5034H21.5063H21.5093H21.5123H21.5152H21.5182H21.5212H21.5242H21.5272H21.5302H21.5333H21.5363H21.5393H21.5424H21.5455H21.5485H21.5516H21.5547H21.5578H21.5609H21.564H21.5671H21.5703H21.5734H21.5766H21.5797H21.5829H21.5861H21.5893H21.5926H21.5958H21.599H21.6023H21.6056H21.6089H21.6122H21.6155H21.6188H21.6222H21.6255H21.6289H21.6323H21.6357H21.6391H21.6426H21.646H21.6495H21.653H21.6565H21.6601H21.6636H21.6672H21.6708H21.6744H21.678H21.6816H21.6853H21.689H21.6927H21.6964H21.7001H21.7039H21.7077H21.7115H21.7153H21.7192H21.723H21.7269H21.7308H21.7348H21.7388H21.7427H21.7467H21.7508H21.7548H21.7589H21.763H21.7672H21.7713H21.7755H21.7797H21.784H21.7882H21.7925H21.7968H21.8012H21.8055H21.8099H21.8144H21.8188H21.8233H21.8278H21.8323H21.8369H21.8415H21.8461H21.8508H21.8555H21.8602H21.8649H21.8697H21.8745H21.8794H21.8842H21.8892H21.8941H21.8991H21.9041H21.9091H21.9142H21.9193H21.9244H21.9296H21.9348H21.94H21.9453H21.9506H21.9559H21.9613H21.9667H21.9722H21.9777H21.9832H21.9888H21.9944H22H22.0057H22.0114H22.0171H22.0229H22.0287H22.0346H22.0405H22.0465H22.0524H22.0585H22.0645H22.0706H22.0768H22.083H22.0892H22.0954H22.1018H22.1081H22.1145H22.1209H22.1274H22.1339H22.1405H22.1471H22.1538H22.1605H22.1672H22.174H22.1808H22.1877H22.1946H22.2016H22.2086H22.2156H22.2227H22.2299H22.2371H22.2443H22.2516H22.259H22.2663H22.2738H22.2813H22.2888H22.2964H22.304H22.3117H22.3194H22.3272H22.335H22.3429H22.3508H22.3588H22.3668H22.3749H22.3831H22.3912H22.3995H22.4078H22.4161H22.4245H22.433H22.4415H22.45H22.4586H22.4673H22.476H22.4848H22.4936H22.5025H22.5115H22.5204H22.5295H22.5386H4.35417ZM4.35417 19.5H4.34209M4.35417 19.5H4.34209M4.34209 19.5H4.33005M4.34209 19.5H4.33005M4.33005 19.5H4.31804M4.33005 19.5H4.31804M4.31804 19.5H4.30607M4.31804 19.5H4.30607M4.30607 19.5H4.29415M4.30607 19.5H4.29415M4.29415 19.5H4.28226M4.29415 19.5H4.28226M4.28226 19.5H4.27041M4.28226 19.5H4.27041M4.27041 19.5H4.2586M4.27041 19.5H4.2586M4.2586 19.5H4.24682M4.2586 19.5H4.24682M4.24682 19.5H4.23509M4.24682 19.5H4.23509M4.23509 19.5H4.22339M4.23509 19.5H4.22339M4.22339 19.5H4.21173M4.22339 19.5H4.21173M4.21173 19.5H4.20011M4.21173 19.5H4.20011M4.20011 19.5H4.18853M4.20011 19.5H4.18853M4.18853 19.5H4.17699M4.18853 19.5H4.17699M4.17699 19.5H4.16548M4.17699 19.5H4.16548M4.16548 19.5H4.15401M4.16548 19.5H4.15401M4.15401 19.5H4.14258M4.15401 19.5H4.14258M4.14258 19.5H4.13119M4.14258 19.5H4.13119M4.13119 19.5H4.11983M4.13119 19.5H4.11983M4.11983 19.5H4.10852M4.11983 19.5H4.10852M4.10852 19.5H4.09723M4.10852 19.5H4.09723M4.09723 19.5H4.08599M4.09723 19.5H4.08599M4.08599 19.5H4.07478M4.08599 19.5H4.07478M4.07478 19.5H4.06361M4.07478 19.5H4.06361M4.06361 19.5H4.05248M4.06361 19.5H4.05248M4.05248 19.5H4.04138M4.05248 19.5H4.04138M4.04138 19.5H4.03032M4.04138 19.5H4.03032M4.03032 19.5H4.0193M4.03032 19.5H4.0193M4.0193 19.5H4.00831M4.0193 19.5H4.00831M4.00831 19.5H3.99736M4.00831 19.5H3.99736M3.99736 19.5H3.98644M3.99736 19.5H3.98644M3.98644 19.5H3.97556M3.98644 19.5H3.97556M3.97556 19.5H3.96472M3.97556 19.5H3.96472M3.96472 19.5H3.95391M3.96472 19.5H3.95391M3.95391 19.5H3.94314M3.95391 19.5H3.94314M3.94314 19.5H3.93241M3.94314 19.5H3.93241M3.93241 19.5H3.92171M3.93241 19.5H3.92171M3.92171 19.5H3.91104M3.92171 19.5H3.91104M3.91104 19.5H3.90041M3.91104 19.5H3.90041M3.90041 19.5H3.88982M3.90041 19.5H3.88982M3.88982 19.5H3.87926M3.88982 19.5H3.87926M3.87926 19.5H3.86873M3.87926 19.5H3.86873M3.86873 19.5H3.85824M3.86873 19.5H3.85824M3.85824 19.5H3.84779M3.85824 19.5H3.84779M3.84779 19.5H3.83737M3.84779 19.5H3.83737M3.83737 19.5H3.82698M3.83737 19.5H3.82698M3.82698 19.5H3.81663M3.82698 19.5H3.81663M3.81663 19.5H3.80632M3.81663 19.5H3.80632M3.80632 19.5H3.79604M3.80632 19.5H3.79604M3.79604 19.5H3.78579M3.79604 19.5H3.78579M3.78579 19.5H3.77557M3.78579 19.5H3.77557M3.77557 19.5H3.76539M3.77557 19.5H3.76539M3.76539 19.5H3.75525M3.76539 19.5H3.75525M3.75525 19.5H3.74514M3.75525 19.5H3.74514M3.74514 19.5H3.73506M3.74514 19.5H3.73506M3.73506 19.5H3.72501M3.73506 19.5H3.72501M3.72501 19.5H3.715M3.72501 19.5H3.715M3.715 19.5H3.70502M3.715 19.5H3.70502M3.70502 19.5H3.69508M3.70502 19.5H3.69508M3.69508 19.5H3.68517M3.69508 19.5H3.68517M3.68517 19.5H3.67529M3.68517 19.5H3.67529M3.67529 19.5H3.66544M3.67529 19.5H3.66544M3.66544 19.5H3.65563M3.66544 19.5H3.65563M3.65563 19.5H3.64585M3.65563 19.5H3.64585M3.64585 19.5H3.6361M3.64585 19.5H3.6361M3.6361 19.5H3.62638M3.6361 19.5H3.62638M3.62638 19.5H3.6167M3.62638 19.5H3.6167M3.6167 19.5H3.60705M3.6167 19.5H3.60705M3.60705 19.5H3.59743M3.60705 19.5H3.59743M3.59743 19.5H3.58785M3.59743 19.5H3.58785M3.58785 19.5H3.57829M3.58785 19.5H3.57829M3.57829 19.5H3.56877M3.57829 19.5H3.56877M3.56877 19.5H3.55928M3.56877 19.5H3.55928M3.55928 19.5H3.54982M3.55928 19.5H3.54982M3.54982 19.5H3.5404M3.54982 19.5H3.5404M3.5404 19.5H3.531M3.5404 19.5H3.531M3.531 19.5H3.52164M3.531 19.5H3.52164M3.52164 19.5H3.5123M3.52164 19.5H3.5123M3.5123 19.5H3.503M3.5123 19.5H3.503M3.503 19.5H3.49373M3.503 19.5H3.49373M3.49373 19.5H3.48449M3.49373 19.5H3.48449M3.48449 19.5H3.47528M3.48449 19.5H3.47528M3.47528 19.5H3.46611M3.47528 19.5H3.46611M3.46611 19.5H3.45696M3.46611 19.5H3.45696M3.45696 19.5H3.44784M3.45696 19.5H3.44784M3.44784 19.5H3.43876M3.44784 19.5H3.43876M3.43876 19.5H3.4297M3.43876 19.5H3.4297M3.4297 19.5H3.42067M3.4297 19.5H3.42067M3.42067 19.5H3.41168M3.42067 19.5H3.41168M3.41168 19.5H3.40271M3.41168 19.5H3.40271M3.40271 19.5H3.39378M3.40271 19.5H3.39378M3.39378 19.5H3.38487M3.39378 19.5H3.38487M3.38487 19.5H3.376M3.38487 19.5H3.376M3.376 19.5H3.36715M3.376 19.5H3.36715M3.36715 19.5H3.35833M3.36715 19.5H3.35833M3.35833 19.5H3.34955M3.35833 19.5H3.34955M3.34955 19.5H3.34079M3.34955 19.5H3.34079M3.34079 19.5H3.33206M3.34079 19.5H3.33206M3.33206 19.5H3.32336M3.33206 19.5H3.32336M3.32336 19.5H3.31469M3.32336 19.5H3.31469M3.31469 19.5H3.30605M3.31469 19.5H3.30605M3.30605 19.5H3.29743M3.30605 19.5H3.29743M3.29743 19.5H3.28885M3.29743 19.5H3.28885M3.28885 19.5H3.28029M3.28885 19.5H3.28029M3.28029 19.5H3.27177M3.28029 19.5H3.27177M3.27177 19.5H3.26327M3.27177 19.5H3.26327M3.26327 19.5H3.2548M3.26327 19.5H3.2548M3.2548 19.5H3.24635M3.2548 19.5H3.24635M3.24635 19.5H3.23794M3.24635 19.5H3.23794M3.23794 19.5H3.22955M3.23794 19.5H3.22955M3.22955 19.5H3.2212M3.22955 19.5H3.2212M3.2212 19.5H3.21286M3.2212 19.5H3.21286M3.21286 19.5H3.20456M3.21286 19.5H3.20456M3.20456 19.5H3.19629M3.20456 19.5H3.19629M3.19629 19.5H3.18804M3.19629 19.5H3.18804M3.18804 19.5H3.17982M3.18804 19.5H3.17982M3.17982 19.5H3.17162M3.17982 19.5H3.17162M3.17162 19.5H3.16346M3.17162 19.5H3.16346M3.16346 19.5H3.15532M3.16346 19.5H3.15532M3.15532 19.5H3.14721M3.15532 19.5H3.14721M3.14721 19.5H3.13912M3.14721 19.5H3.13912M3.13912 19.5H3.13106M3.13912 19.5H3.13106M3.13106 19.5H3.12303M3.13106 19.5H3.12303M3.12303 19.5H3.11502M3.12303 19.5H3.11502M3.11502 19.5H3.10705M3.11502 19.5H3.10705M3.10705 19.5H3.09909M3.10705 19.5H3.09909M3.09909 19.5H3.09117M3.09909 19.5H3.09117M3.09117 19.5H3.08327M3.09117 19.5H3.08327M3.08327 19.5H3.07539M3.08327 19.5H3.07539M3.07539 19.5H3.06754M3.07539 19.5H3.06754M3.06754 19.5H3.05972M3.06754 19.5H3.05972M3.05972 19.5H3.05192M3.05972 19.5H3.05192M3.05192 19.5H3.04415M3.05192 19.5H3.04415M3.04415 19.5H3.03641M3.04415 19.5H3.03641M3.03641 19.5H3.02868M3.03641 19.5H3.02868M3.02868 19.5H3.02099M3.02868 19.5H3.02099M3.02099 19.5H3.01332M3.02099 19.5H3.01332M3.01332 19.5H3.00567M3.01332 19.5H3.00567M3.00567 19.5H2.99805M3.00567 19.5H2.99805M2.99805 19.5H2.99046M2.99805 19.5H2.99046M2.99046 19.5H2.98289M2.99046 19.5H2.98289M2.98289 19.5H2.97534M2.98289 19.5H2.97534M2.97534 19.5H2.96782M2.97534 19.5H2.96782M2.96782 19.5H2.96032M2.96782 19.5H2.96032M2.96032 19.5H2.95285M2.96032 19.5H2.95285M2.95285 19.5H2.9454M2.95285 19.5H2.9454M2.9454 19.5H2.93798M2.9454 19.5H2.93798M2.93798 19.5H2.93058M2.93798 19.5H2.93058M2.93058 19.5H2.9232M2.93058 19.5H2.9232M2.9232 19.5H2.91585M2.9232 19.5H2.91585M2.91585 19.5H2.90852M2.91585 19.5H2.90852M2.90852 19.5H2.90122M2.90852 19.5H2.90122M2.90122 19.5H2.89394M2.90122 19.5H2.89394M2.89394 19.5H2.88668M2.89394 19.5H2.88668M2.88668 19.5H2.87944M2.88668 19.5H2.87944M2.87944 19.5H2.87223M2.87944 19.5H2.87223M2.87223 19.5H2.86504M2.87223 19.5H2.86504M2.86504 19.5H2.85788M2.86504 19.5H2.85788M2.85788 19.5H2.85074M2.85788 19.5H2.85074M2.85074 19.5H2.84362M2.85074 19.5H2.84362M2.84362 19.5H2.83652M2.84362 19.5H2.83652M2.83652 19.5H2.82944M2.83652 19.5H2.82944M2.82944 19.5H2.82239M2.82944 19.5H2.82239M2.82239 19.5H2.81536M2.82239 19.5H2.81536M2.81536 19.5H2.80836M2.81536 19.5H2.80836M2.80836 19.5H2.80137M2.80836 19.5H2.80137M2.80137 19.5H2.79441M2.80137 19.5H2.79441M2.79441 19.5H2.78747M2.79441 19.5H2.78747M2.78747 19.5H2.78055M2.78747 19.5H2.78055M2.78055 19.5H2.77365M2.78055 19.5H2.77365M2.77365 19.5H2.76677M2.77365 19.5H2.76677M2.76677 19.5H2.75992M2.76677 19.5H2.75992M2.75992 19.5H2.75309M2.75992 19.5H2.75309M2.75309 19.5H2.74628M2.75309 19.5H2.74628M2.74628 19.5H2.73949M2.74628 19.5H2.73949M2.73949 19.5H2.73272M2.73949 19.5H2.73272M2.73272 19.5H2.72597M2.73272 19.5H2.72597M2.72597 19.5H2.71924M2.72597 19.5H2.71924M2.71924 19.5H2.71254M2.71924 19.5H2.71254M2.71254 19.5H2.70585M2.71254 19.5H2.70585M2.70585 19.5H2.69918M2.70585 19.5H2.69918M2.69918 19.5H2.69254M2.69918 19.5H2.69254M2.69254 19.5H2.68592M2.69254 19.5H2.68592M2.68592 19.5H2.67931M2.68592 19.5H2.67931M2.67931 19.5H2.67273M2.67931 19.5H2.67273M2.67273 19.5H2.66617M2.67273 19.5H2.66617M2.66617 19.5H2.65962M2.66617 19.5H2.65962M2.65962 19.5H2.6531M2.65962 19.5H2.6531M2.6531 19.5H2.6466M2.6531 19.5H2.6466M2.6466 19.5H2.64011M2.6466 19.5H2.64011M2.64011 19.5H2.63365M2.64011 19.5H2.63365M2.63365 19.5H2.6272M2.63365 19.5H2.6272M2.6272 19.5H2.62078M2.6272 19.5H2.62078M2.62078 19.5H2.61437M2.62078 19.5H2.61437M2.61437 19.5H2.60798M2.61437 19.5H2.60798M2.60798 19.5H2.60162M2.60798 19.5H2.60162M2.60162 19.5H2.59527M2.60162 19.5H2.59527M2.59527 19.5H2.58894M2.59527 19.5H2.58894M2.58894 19.5H2.58263M2.58894 19.5H2.58263M2.58263 19.5H2.57633M2.58263 19.5H2.57633M2.57633 19.5H2.57006M2.57633 19.5H2.57006M2.57006 19.5H2.5638M2.57006 19.5H2.5638M2.5638 19.5H2.55757M2.5638 19.5H2.55757M2.55757 19.5H2.55135M2.55757 19.5H2.55135M2.55135 19.5H2.54514M2.55135 19.5H2.54514M2.54514 19.5H2.53896M2.54514 19.5H2.53896M2.53896 19.5H2.5328M2.53896 19.5H2.5328M2.5328 19.5H2.52665M2.5328 19.5H2.52665M2.52665 19.5H2.52052M2.52665 19.5H2.52052M2.52052 19.5H2.51441M2.52052 19.5H2.51441M2.51441 19.5H2.50831M2.51441 19.5H2.50831M2.50831 19.5H2.50224M2.50831 19.5H2.50224M2.50224 19.5H2.49618M2.50224 19.5H2.49618M2.49618 19.5H2.49013M2.49618 19.5H2.49013M2.49013 19.5H2.48411M2.49013 19.5H2.48411M2.48411 19.5H2.4781M2.48411 19.5H2.4781M2.4781 19.5H2.47211M2.4781 19.5H2.47211M2.47211 19.5H2.46613M2.47211 19.5H2.46613M2.46613 19.5H2.46018M2.46613 19.5H2.46018M2.46018 19.5H2.45424M2.46018 19.5H2.45424M2.45424 19.5H2.44831M2.45424 19.5H2.44831M2.44831 19.5H2.4424M2.44831 19.5H2.4424M2.4424 19.5H2.43651M2.4424 19.5H2.43651M2.43651 19.5H2.43063M2.43651 19.5H2.43063M2.43063 19.5H2.42477M2.43063 19.5H2.42477M2.42477 19.5H2.41893M2.42477 19.5H2.41893M2.41893 19.5H2.4131M2.41893 19.5H2.4131M2.4131 19.5H2.40729M2.4131 19.5H2.40729M2.40729 19.5H2.40149M2.40729 19.5H2.40149M2.40149 19.5H2.39571M2.40149 19.5H2.39571M2.39571 19.5H2.38994M2.39571 19.5H2.38994M2.38994 19.5H2.38419M2.38994 19.5H2.38419M2.38419 19.5H2.37846M2.38419 19.5H2.37846M2.37846 19.5H2.37274M2.37846 19.5H2.37274M2.37274 19.5H2.36703M2.37274 19.5H2.36703M2.36703 19.5H2.36134M2.36703 19.5H2.36134M2.36134 19.5H2.35567M2.36134 19.5H2.35567M2.35567 19.5H2.35001M2.35567 19.5H2.35001M2.35001 19.5H2.34436M2.35001 19.5H2.34436M2.34436 19.5H2.33873M2.34436 19.5H2.33873M2.33873 19.5H2.33311M2.33873 19.5H2.33311M2.33311 19.5H2.32751M2.33311 19.5H2.32751M2.32751 19.5H2.32192M2.32751 19.5H2.32192M2.32192 19.5H2.31635M2.32192 19.5H2.31635M2.31635 19.5H2.31079M2.31635 19.5H2.31079M2.31079 19.5H2.30524M2.31079 19.5H2.30524M2.30524 19.5H2.29971M2.30524 19.5H2.29971M2.29971 19.5H2.29419M2.29971 19.5H2.29419M2.29419 19.5H2.28868M2.29419 19.5H2.28868M2.28868 19.5H2.28319M2.28868 19.5H2.28319M2.28319 19.5H2.27771M2.28319 19.5H2.27771M2.27771 19.5H2.27225M2.27771 19.5H2.27225M2.27225 19.5H2.26679M2.27225 19.5H2.26679M2.26679 19.5H2.26135M2.26679 19.5H2.26135M2.26135 19.5H2.25593M2.26135 19.5H2.25593M2.25593 19.5H2.25052M2.25593 19.5H2.25052M2.25052 19.5H2.24511M2.25052 19.5H2.24511M2.24511 19.5H2.23973M2.24511 19.5H2.23973M2.23973 19.5H2.23435M2.23973 19.5H2.23435M2.23435 19.5H2.22899M2.23435 19.5H2.22899M2.22899 19.5H2.22364M2.22899 19.5H2.22364M2.22364 19.5H2.2183M2.22364 19.5H2.2183M2.2183 19.5H2.21297M2.2183 19.5H2.21297M2.21297 19.5H2.20766M2.21297 19.5H2.20766M2.20766 19.5H2.20236M2.20766 19.5H2.20236M2.20236 19.5H2.19707M2.20236 19.5H2.19707M2.19707 19.5H2.19179M2.19707 19.5H2.19179M2.19179 19.5H2.18652M2.19179 19.5H2.18652M2.18652 19.5H2.18126M2.18652 19.5H2.18126M2.18126 19.5H2.17602M2.18126 19.5H2.17602M2.17602 19.5H2.17079M2.17602 19.5H2.17079M2.17079 19.5H2.16557M2.17079 19.5H2.16557M2.16557 19.5H2.16035M2.16557 19.5H2.16035M2.16035 19.5H2.15515M2.16035 19.5H2.15515M2.15515 19.5H2.14997M2.15515 19.5H2.14997M2.14997 19.5H2.14479M2.14997 19.5H2.14479M2.14479 19.5H2.13962M2.14479 19.5H2.13962M2.13962 19.5H2.13446M2.13962 19.5H2.13446M2.13446 19.5H2.12932M2.13446 19.5H2.12932M2.12932 19.5H2.12418M2.12932 19.5H2.12418M2.12418 19.5H2.11906M2.12418 19.5H2.11906M2.11906 19.5H2.11394M2.11906 19.5H2.11394M2.11394 19.5H2.10884M2.11394 19.5H2.10884M2.10884 19.5H2.10374M2.10884 19.5H2.10374M2.10374 19.5H2.09865M2.10374 19.5H2.09865M2.09865 19.5H2.09358M2.09865 19.5H2.09358M2.09358 19.5H2.08851M2.09358 19.5H2.08851M2.08851 19.5H2.08346M2.08851 19.5H2.08346M2.08346 19.5H2.07841M2.08346 19.5H2.07841M2.07841 19.5H2.07337M2.07841 19.5H2.07337M2.07337 19.5H2.06834M2.07337 19.5H2.06834M2.06834 19.5H2.06332M2.06834 19.5H2.06332M2.06332 19.5H2.05831M2.06332 19.5H2.05831M2.05831 19.5H2.05331M2.05831 19.5H2.05331M2.05331 19.5H2.04832M2.05331 19.5H2.04832M2.04832 19.5H2.04333M2.04832 19.5H2.04333M2.04333 19.5H2.03836M2.04333 19.5H2.03836M2.03836 19.5H2.03339M2.03836 19.5H2.03339M2.03339 19.5H2.02843M2.03339 19.5H2.02843M2.02843 19.5H2.02348M2.02843 19.5H2.02348M2.02348 19.5H2.01854M2.02348 19.5H2.01854M2.01854 19.5H2.01361M2.01854 19.5H2.01361M2.01361 19.5H2.00868M2.01361 19.5H2.00868M2.00868 19.5H2.00376M2.00868 19.5H2.00376M2.00376 19.5H1.99885M2.00376 19.5H1.99885M1.99885 19.5H1.99395M1.99885 19.5H1.99395M1.99395 19.5H1.98905M1.99395 19.5H1.98905M1.98905 19.5H1.98417M1.98905 19.5H1.98417M1.98417 19.5H1.97929M1.98417 19.5H1.97929M1.97929 19.5H1.97441M1.97929 19.5H1.97441M1.97441 19.5H1.96955M1.97441 19.5H1.96955M1.96955 19.5H1.96469M1.96955 19.5H1.96469M1.96469 19.5H1.95984M1.96469 19.5H1.95984M1.95984 19.5H1.95499M1.95984 19.5H1.95499M1.95499 19.5H1.95015M1.95499 19.5H1.95015M1.95015 19.5H1.94532M1.95015 19.5H1.94532M1.94532 19.5H1.9405M1.94532 19.5H1.9405M1.9405 19.5H1.93568M1.9405 19.5H1.93568M1.93568 19.5H1.93087M1.93568 19.5H1.93087M1.93087 19.5H1.92606M1.93087 19.5H1.92606M1.92606 19.5H1.92126M1.92606 19.5H1.92126M1.92126 19.5H1.91647M1.92126 19.5H1.91647M1.91647 19.5H1.91168M1.91647 19.5H1.91168M1.91168 19.5H1.9069M1.91168 19.5H1.9069M1.9069 19.5H1.90212M1.9069 19.5H1.90212M1.90212 19.5H1.89735M1.90212 19.5H1.89735M1.89735 19.5H1.89258M1.89735 19.5H1.89258M1.89258 19.5H1.88783M1.89258 19.5H1.88783M1.88783 19.5H1.88307M1.88783 19.5H1.88307M1.88307 19.5H1.87832M1.88307 19.5H1.87832M1.87832 19.5H1.87358M1.87832 19.5H1.87358M1.87358 19.5H1.86884M1.87358 19.5H1.86884M1.86884 19.5H1.8641M1.86884 19.5H1.8641M1.8641 19.5H1.85937M1.8641 19.5H1.85937M1.85937 19.5H1.85465M1.85937 19.5H1.85465M1.85465 19.5H1.84993M1.85465 19.5H1.84993M1.84993 19.5H1.84521M1.84993 19.5H1.84521M1.84521 19.5H1.8405M1.84521 19.5H1.8405M1.8405 19.5H1.83579M1.8405 19.5H1.83579M1.83579 19.5H1.83109M1.83579 19.5H1.83109M1.83109 19.5H1.82639M1.83109 19.5H1.82639M1.82639 19.5H1.8217M1.82639 19.5H1.8217M1.8217 19.5H1.817M1.8217 19.5H1.817M1.817 19.5H1.81232M1.817 19.5H1.81232M1.81232 19.5H1.80763M1.81232 19.5H1.80763M1.80763 19.5H1.80295M1.80763 19.5H1.80295M1.80295 19.5H1.79828M1.80295 19.5H1.79828M1.79828 19.5H1.7936M1.79828 19.5H1.7936M1.7936 19.5H1.78893M1.7936 19.5H1.78893M1.78893 19.5H1.78426M1.78893 19.5H1.78426M1.78426 19.5H1.7796M1.78426 19.5H1.7796M1.7796 19.5H1.77494M1.7796 19.5H1.77494M1.77494 19.5H1.77028M1.77494 19.5H1.77028M1.77028 19.5H1.76562M1.77028 19.5H1.76562M1.76562 19.5H1.76097M1.76562 19.5H1.76097M1.76097 19.5H1.75632M1.76097 19.5H1.75632M1.75632 19.5H1.75167M1.75632 19.5H1.75167M1.75167 19.5H1.74703M1.75167 19.5H1.74703M1.74703 19.5H1.74238M1.74703 19.5H1.74238M1.74238 19.5H1.73774M1.74238 19.5H1.73774M1.73774 19.5H1.7331M1.73774 19.5H1.7331M1.7331 19.5H1.72846M1.7331 19.5H1.72846M1.72846 19.5H1.72383M1.72846 19.5H1.72383M1.72383 19.5H1.71919M1.72383 19.5H1.71919M1.71919 19.5H1.71456M1.71919 19.5H1.71456M1.71456 19.5H1.70993M1.71456 19.5H1.70993M1.70993 19.5H1.7053M1.70993 19.5H1.7053M1.7053 19.5H1.70067M1.7053 19.5H1.70067M1.70067 19.5H1.69604M1.70067 19.5H1.69604M1.69604 19.5H1.69142M1.69604 19.5H1.69142M1.69142 19.5H1.68679M1.69142 19.5H1.68679M1.68679 19.5H1.68217M1.68679 19.5H1.68217M1.68217 19.5H1.67754M1.68217 19.5H1.67754M1.67754 19.5H1.67292M1.67754 19.5H1.67292M1.67292 19.5H1.6683M1.67292 19.5H1.6683M1.6683 19.5H1.66367M1.6683 19.5H1.66367M1.66367 19.5H1.65905M1.66367 19.5H1.65905M1.65905 19.5H1.65443M1.65905 19.5H1.65443M1.65443 19.5H1.64981M1.65443 19.5H1.64981M1.64981 19.5H1.64519M1.64981 19.5H1.64519M1.64519 19.5H1.64056M1.64519 19.5H1.64056M1.64056 19.5H1.63594M1.64056 19.5H1.63594M1.63594 19.5H1.63132M1.63594 19.5H1.63132M1.63132 19.5H1.6267M1.63132 19.5H1.6267M1.6267 19.5H1.62207M1.6267 19.5H1.62207M1.62207 19.5H1.61745M1.62207 19.5H1.61745M1.61745 19.5H1.61283M1.61745 19.5H1.61283M1.61283 19.5H1.6082M1.61283 19.5H1.6082M1.6082 19.5H1.60357M1.6082 19.5H1.60357M1.60357 19.5H1.59895M1.60357 19.5H1.59895M1.59895 19.5H1.59432M1.59895 19.5H1.59432M1.59432 19.5H1.58969M1.59432 19.5H1.58969M1.58969 19.5H1.58506M1.58969 19.5H1.58506M1.58506 19.5H1.58043M1.58506 19.5H1.58043M1.58043 19.5H1.57579M1.58043 19.5H1.57579M1.57579 19.5H1.57116M1.57579 19.5H1.57116M1.57116 19.5H1.56652M1.57116 19.5H1.56652M1.56652 19.5H1.56188M1.56652 19.5H1.56188M1.56188 19.5H1.55724M1.56188 19.5H1.55724M1.55724 19.5H1.5526M1.55724 19.5H1.5526M1.5526 19.5H1.54795M1.5526 19.5H1.54795M1.54795 19.5H1.5433M1.54795 19.5H1.5433M1.5433 19.5H1.53865M1.5433 19.5H1.53865M1.53865 19.5H1.534M1.53865 19.5H1.534M1.534 19.5H1.52935M1.534 19.5H1.52935M1.52935 19.5H1.52469M1.52935 19.5H1.52469M1.52469 19.5H1.52003M1.52469 19.5H1.52003M1.52003 19.5H1.51536M1.52003 19.5H1.51536M1.51536 19.5H1.5107M1.51536 19.5H1.5107M1.5107 19.5H1.50603M1.5107 19.5H1.50603M1.50603 19.5H1.50136M1.50603 19.5H1.50136M1.50136 19.5H1.49668M1.50136 19.5H1.49668M1.49668 19.5H1.492M1.49668 19.5H1.492M1.492 19.5H1.48732M1.492 19.5H1.48732M1.48732 19.5H1.48263M1.48732 19.5H1.48263M1.48263 19.5H1.47794M1.48263 19.5H1.47794M1.47794 19.5H1.47325M1.47794 19.5H1.47325M1.47325 19.5H1.46855M1.47325 19.5H1.46855M1.46855 19.5H1.46385M1.46855 19.5H1.46385M1.46385 19.5H1.45914M1.46385 19.5H1.45914M1.45914 19.5H1.45443M1.45914 19.5H1.45443M1.45443 19.5H1.44972M1.45443 19.5H1.44972M1.44972 19.5H1.445M1.44972 19.5H1.445M1.445 19.5H1.44028M1.445 19.5H1.44028M1.44028 19.5H1.43555M1.44028 19.5H1.43555M1.43555 19.5H1.43081M1.43555 19.5H1.43081M1.43081 19.5H1.42608M1.43081 19.5H1.42608M1.42608 19.5H1.42133M1.42608 19.5H1.42133M1.42133 19.5H1.41659M1.42133 19.5H1.41659M1.41659 19.5H1.41183M1.41659 19.5H1.41183M1.41183 19.5H1.40707M1.41183 19.5H1.40707M1.40707 19.5H1.40231M1.40707 19.5H1.40231M1.40231 19.5H1.39754M1.40231 19.5H1.39754M1.39754 19.5H1.39277M1.39754 19.5H1.39277M1.39277 19.5H1.38799M1.39277 19.5H1.38799M1.38799 19.5H1.3832M1.38799 19.5H1.3832M1.3832 19.5H1.37841M1.3832 19.5H1.37841M1.37841 19.5H1.37361M1.37841 19.5H1.37361M1.37361 19.5H1.36881M1.37361 19.5H1.36881M1.36881 19.5H1.364M1.36881 19.5H1.364M1.364 19.5H1.35918M1.364 19.5H1.35918M1.35918 19.5H1.35436M1.35918 19.5H1.35436M1.35436 19.5H1.34953M1.35436 19.5H1.34953M1.34953 19.5H1.34469M1.34953 19.5H1.34469M1.34469 19.5H1.33985M1.34469 19.5H1.33985M1.33985 19.5H1.335M1.33985 19.5H1.335M1.335 19.5H1.33014M1.335 19.5H1.33014M1.33014 19.5H1.32528M1.33014 19.5H1.32528M1.32528 19.5H1.32041M1.32528 19.5H1.32041M1.32041 19.5H1.31553M1.32041 19.5H1.31553M1.31553 19.5H1.31065M1.31553 19.5H1.31065M1.31065 19.5H1.30575M1.31065 19.5H1.30575M1.30575 19.5H1.30085M1.30575 19.5H1.30085M1.30085 19.5H1.29595M1.30085 19.5H1.29595M1.29595 19.5H1.29103M1.29595 19.5H1.29103M1.29103 19.5H1.28611M1.29103 19.5H1.28611M1.28611 19.5H1.28118M1.28611 19.5H1.28118M1.28118 19.5H1.27624M1.28118 19.5H1.27624M1.27624 19.5H1.27129M1.27624 19.5H1.27129M1.27129 19.5H1.26633M1.27129 19.5H1.26633M1.26633 19.5H1.26137M1.26633 19.5H1.26137M1.26137 19.5H1.2564M1.26137 19.5H1.2564M1.2564 19.5H1.25141M1.2564 19.5H1.25141M1.25141 19.5H1.24642M1.25141 19.5H1.24642M1.24642 19.5H1.24143M1.24642 19.5H1.24143M1.24143 19.5H1.23642M1.24143 19.5H1.23642M1.23642 19.5H1.2314M1.23642 19.5H1.2314M1.2314 19.5H1.22638M1.2314 19.5H1.22638M1.22638 19.5H1.22134M1.22638 19.5H1.22134M1.22134 19.5H1.2163M1.22134 19.5H1.2163M1.2163 19.5H1.21124M1.2163 19.5H1.21124M1.21124 19.5H1.20618M1.21124 19.5H1.20618M1.20618 19.5H1.20111M1.20618 19.5H1.20111M1.20111 19.5H1.19603M1.20111 19.5H1.19603M1.19603 19.5H1.19093M1.19603 19.5H1.19093M1.19093 19.5H1.18583M1.19093 19.5H1.18583M1.18583 19.5H1.18072M1.18583 19.5H1.18072M1.18072 19.5H1.1756M1.18072 19.5H1.1756M1.1756 19.5H1.17046M1.1756 19.5H1.17046M1.17046 19.5H1.16532M1.17046 19.5H1.16532M1.16532 19.5H1.16017M1.16532 19.5H1.16017M1.16017 19.5H1.155M1.16017 19.5H1.155M1.155 19.5H1.14983M1.155 19.5H1.14983M1.14983 19.5H1.14464M1.14983 19.5H1.14464M1.14464 19.5H1.13945M1.14464 19.5H1.13945M1.13945 19.5H1.13424M1.13945 19.5H1.13424M1.13424 19.5H1.12902M1.13424 19.5H1.12902M1.12902 19.5H1.12379M1.12902 19.5H1.12379M1.12379 19.5H1.11855M1.12379 19.5H1.11855M1.11855 19.5H1.1133M1.11855 19.5H1.1133M1.1133 19.5H1.10804M1.1133 19.5H1.10804M1.10804 19.5H1.10276M1.10804 19.5H1.10276M1.10276 19.5H1.09747M1.10276 19.5H1.09747M1.09747 19.5H1.09218M1.09747 19.5H1.09218M1.09218 19.5H1.08687M1.09218 19.5H1.08687M1.08687 19.5H1.08154M1.08687 19.5H1.08154M1.08154 19.5H1.07621M1.08154 19.5H1.07621M1.07621 19.5H1.07086M1.07621 19.5H1.07086M1.07086 19.5H1.0655M1.07086 19.5H1.0655M1.0655 19.5H1.06013M1.0655 19.5H1.06013M1.06013 19.5H1.05475M1.06013 19.5H1.05475M1.05475 19.5H1.04935M1.05475 19.5H1.04935M1.04935 19.5H1.04394M1.04935 19.5H1.04394M1.04394 19.5H1.03852M1.04394 19.5H1.03852M1.03852 19.5H1.03308M1.03852 19.5H1.03308M1.03308 19.5H1.02764M1.03308 19.5H1.02764M1.02764 19.5H1.02218M1.02764 19.5H1.02218M1.02218 19.5H1.0167M1.02218 19.5H1.0167M1.0167 19.5H1.01121M1.0167 19.5H1.01121M1.01121 19.5H1.00571M1.01121 19.5H1.00571M1.00571 19.5H1.0002M1.00571 19.5H1.0002M1.0002 19.5C0.85937 19.5 0.739164 19.4422 0.664115 19.3628L1.0002 19.5ZM22.9597 19.0941L23.4517 19.005L1.0002 20C0.447913 20 -0.00896871 19.5485 0.0893917 19.005L0.581398 19.0941C0.907612 17.2917 2.20868 15.6392 4.20623 14.4254C6.19954 13.2141 8.84864 12.4666 11.7705 12.4666C14.6924 12.4666 17.3415 13.2141 19.3348 14.4254C21.3324 15.6392 22.6334 17.2917 22.9597 19.0941Z" stroke="#99BBC6"/>
</svg>
