<svg width="159" height="80" viewBox="0 0 159 80" fill="none" xmlns="http://www.w3.org/2000/svg">
<ellipse cx="64.0209" cy="56.7165" rx="1.8125" ry="1.79104" fill="#2DAFD7" fill-opacity="0.3"/>
<ellipse cx="64.0209" cy="50.7462" rx="1.8125" ry="1.79104" fill="#2DAFD7" fill-opacity="0.3"/>
<ellipse cx="64.0209" cy="44.7762" rx="1.8125" ry="1.79104" fill="#2DAFD7" fill-opacity="0.3"/>
<ellipse cx="64.0209" cy="38.8061" rx="1.8125" ry="1.79104" fill="#2DAFD7" fill-opacity="0.3"/>
<ellipse cx="64.0209" cy="32.8357" rx="1.8125" ry="1.79104" fill="#2DAFD7" fill-opacity="0.3"/>
<ellipse cx="64.0209" cy="26.8656" rx="1.8125" ry="1.79104" fill="#2DAFD7" fill-opacity="0.3"/>
<ellipse cx="64.0209" cy="20.8955" rx="1.8125" ry="1.79104" fill="#2DAFD7" fill-opacity="0.3"/>
<ellipse cx="58.5833" cy="20.2985" rx="1.20833" ry="1.19403" fill="#2DAFD7" fill-opacity="0.3"/>
<ellipse cx="52.5417" cy="20.2985" rx="1.20833" ry="1.19403" fill="#2DAFD7" fill-opacity="0.3"/>
<ellipse cx="47.1042" cy="19.7015" rx="0.604167" ry="0.597015" fill="#2DAFD7" fill-opacity="0.3"/>
<ellipse cx="51.9375" cy="16.1195" rx="0.604167" ry="0.597015" fill="#2DAFD7" fill-opacity="0.3"/>
<ellipse cx="99.0625" cy="16.1195" rx="0.604167" ry="0.597015" fill="#2DAFD7" fill-opacity="0.3"/>
<ellipse cx="103.896" cy="19.7015" rx="0.604167" ry="0.597015" fill="#2DAFD7" fill-opacity="0.3"/>
<ellipse cx="47.1042" cy="31.6417" rx="0.604167" ry="0.597015" fill="#2DAFD7" fill-opacity="0.3"/>
<ellipse cx="42.2708" cy="31.6417" rx="0.604167" ry="0.597015" fill="#2DAFD7" fill-opacity="0.3"/>
<ellipse cx="37.4375" cy="31.6417" rx="0.604167" ry="0.597015" fill="#2DAFD7" fill-opacity="0.3"/>
<ellipse cx="103.896" cy="31.6417" rx="0.604167" ry="0.597015" fill="#2DAFD7" fill-opacity="0.3"/>
<ellipse cx="108.729" cy="31.6417" rx="0.604167" ry="0.597015" fill="#2DAFD7" fill-opacity="0.3"/>
<ellipse cx="113.563" cy="31.6417" rx="0.604167" ry="0.597015" fill="#2DAFD7" fill-opacity="0.3"/>
<ellipse cx="47.1042" cy="43.5821" rx="0.604167" ry="0.597015" fill="#2DAFD7" fill-opacity="0.3"/>
<ellipse cx="42.2708" cy="43.5821" rx="0.604167" ry="0.597015" fill="#2DAFD7" fill-opacity="0.3"/>
<ellipse cx="37.4375" cy="43.5821" rx="0.604167" ry="0.597015" fill="#2DAFD7" fill-opacity="0.3"/>
<ellipse cx="32.6042" cy="43.5821" rx="0.604167" ry="0.597015" fill="#2DAFD7" fill-opacity="0.3"/>
<ellipse cx="103.896" cy="43.5821" rx="0.604167" ry="0.597015" fill="#2DAFD7" fill-opacity="0.3"/>
<ellipse cx="108.729" cy="43.5821" rx="0.604167" ry="0.597015" fill="#2DAFD7" fill-opacity="0.3"/>
<ellipse cx="113.563" cy="43.5821" rx="0.604167" ry="0.597015" fill="#2DAFD7" fill-opacity="0.3"/>
<ellipse cx="118.396" cy="43.5821" rx="0.604167" ry="0.597015" fill="#2DAFD7" fill-opacity="0.3"/>
<ellipse cx="47.1042" cy="55.5224" rx="0.604167" ry="0.597015" fill="#2DAFD7" fill-opacity="0.3"/>
<ellipse cx="42.2708" cy="55.5224" rx="0.604167" ry="0.597015" fill="#2DAFD7" fill-opacity="0.3"/>
<ellipse cx="76.1042" cy="73.4328" rx="0.604167" ry="0.597015" fill="#2DAFD7" fill-opacity="0.3"/>
<ellipse cx="76.1042" cy="73.4328" rx="0.604167" ry="0.597015" fill="#2DAFD7" fill-opacity="0.3"/>
<ellipse cx="68.8542" cy="73.4328" rx="0.604167" ry="0.597015" fill="#2DAFD7" fill-opacity="0.3"/>
<ellipse cx="68.8542" cy="73.4328" rx="0.604167" ry="0.597015" fill="#2DAFD7" fill-opacity="0.3"/>
<ellipse cx="62.8125" cy="73.4328" rx="0.604167" ry="0.597015" fill="#2DAFD7" fill-opacity="0.3"/>
<ellipse cx="57.9792" cy="73.4328" rx="0.604167" ry="0.597015" fill="#2DAFD7" fill-opacity="0.3"/>
<ellipse cx="103.896" cy="55.5224" rx="0.604167" ry="0.597015" fill="#2DAFD7" fill-opacity="0.3"/>
<ellipse cx="108.729" cy="55.5224" rx="0.604167" ry="0.597015" fill="#2DAFD7" fill-opacity="0.3"/>
<ellipse cx="99.0625" cy="55.5224" rx="0.604167" ry="0.597015" fill="#2DAFD7" fill-opacity="0.3"/>
<ellipse cx="51.9375" cy="55.5224" rx="0.604167" ry="0.597015" fill="#2DAFD7" fill-opacity="0.3"/>
<ellipse cx="82.1458" cy="73.4328" rx="0.604167" ry="0.597015" fill="#2DAFD7" fill-opacity="0.3"/>
<ellipse cx="82.1458" cy="73.4328" rx="0.604167" ry="0.597015" fill="#2DAFD7" fill-opacity="0.3"/>
<ellipse cx="88.1875" cy="73.4328" rx="0.604167" ry="0.597015" fill="#2DAFD7" fill-opacity="0.3"/>
<ellipse cx="94.2292" cy="73.4328" rx="0.604167" ry="0.597015" fill="#2DAFD7" fill-opacity="0.3"/>
<ellipse cx="82.1458" cy="79.403" rx="0.604167" ry="0.597015" fill="#2DAFD7" fill-opacity="0.3"/>
<ellipse cx="82.1458" cy="79.403" rx="0.604167" ry="0.597015" fill="#2DAFD7" fill-opacity="0.3"/>
<ellipse cx="82.1458" cy="67.4626" rx="0.604167" ry="0.597015" fill="#2DAFD7" fill-opacity="0.3"/>
<ellipse cx="82.1458" cy="10.1493" rx="0.604167" ry="0.597015" fill="#2DAFD7" fill-opacity="0.3"/>
<ellipse cx="82.1458" cy="5.37314" rx="0.604167" ry="0.597015" fill="#2DAFD7" fill-opacity="0.3"/>
<ellipse cx="82.1458" cy="0.597015" rx="0.604167" ry="0.597015" fill="#2DAFD7" fill-opacity="0.3"/>
<ellipse cx="82.1458" cy="67.4626" rx="0.604167" ry="0.597015" fill="#2DAFD7" fill-opacity="0.3"/>
<ellipse cx="82.1458" cy="10.1493" rx="0.604167" ry="0.597015" fill="#2DAFD7" fill-opacity="0.3"/>
<ellipse cx="82.1458" cy="5.37314" rx="0.604167" ry="0.597015" fill="#2DAFD7" fill-opacity="0.3"/>
<ellipse cx="82.1458" cy="0.597015" rx="0.604167" ry="0.597015" fill="#2DAFD7" fill-opacity="0.3"/>
<ellipse cx="88.1875" cy="67.4626" rx="0.604167" ry="0.597015" fill="#2DAFD7" fill-opacity="0.3"/>
<ellipse cx="88.1875" cy="10.1493" rx="0.604167" ry="0.597015" fill="#2DAFD7" fill-opacity="0.3"/>
<ellipse cx="88.1875" cy="5.37314" rx="0.604167" ry="0.597015" fill="#2DAFD7" fill-opacity="0.3"/>
<ellipse cx="94.2292" cy="67.4626" rx="0.604167" ry="0.597015" fill="#2DAFD7" fill-opacity="0.3"/>
<ellipse cx="94.2292" cy="10.1493" rx="0.604167" ry="0.597015" fill="#2DAFD7" fill-opacity="0.3"/>
<ellipse cx="94.2292" cy="5.37314" rx="0.604167" ry="0.597015" fill="#2DAFD7" fill-opacity="0.3"/>
<ellipse cx="99.0625" cy="67.4626" rx="0.604167" ry="0.597015" fill="#2DAFD7" fill-opacity="0.3"/>
<ellipse cx="99.0625" cy="10.1493" rx="0.604167" ry="0.597015" fill="#2DAFD7" fill-opacity="0.3"/>
<ellipse cx="99.0625" cy="67.4626" rx="0.604167" ry="0.597015" fill="#2DAFD7" fill-opacity="0.3"/>
<ellipse cx="99.0625" cy="10.1493" rx="0.604167" ry="0.597015" fill="#2DAFD7" fill-opacity="0.3"/>
<ellipse cx="47.1042" cy="25.6716" rx="0.604167" ry="0.597015" fill="#2DAFD7" fill-opacity="0.3"/>
<ellipse cx="42.2708" cy="25.6716" rx="0.604167" ry="0.597015" fill="#2DAFD7" fill-opacity="0.3"/>
<ellipse cx="103.896" cy="25.6716" rx="0.604167" ry="0.597015" fill="#2DAFD7" fill-opacity="0.3"/>
<ellipse cx="108.729" cy="25.6716" rx="0.604167" ry="0.597015" fill="#2DAFD7" fill-opacity="0.3"/>
<ellipse cx="47.1042" cy="37.612" rx="0.604167" ry="0.597015" fill="#2DAFD7" fill-opacity="0.3"/>
<ellipse cx="42.2708" cy="37.612" rx="0.604167" ry="0.597015" fill="#2DAFD7" fill-opacity="0.3"/>
<ellipse cx="37.4375" cy="37.612" rx="0.604167" ry="0.597015" fill="#2DAFD7" fill-opacity="0.3"/>
<ellipse cx="32.6042" cy="37.612" rx="0.604167" ry="0.597015" fill="#2DAFD7" fill-opacity="0.3"/>
<ellipse cx="103.896" cy="37.612" rx="0.604167" ry="0.597015" fill="#2DAFD7" fill-opacity="0.3"/>
<ellipse cx="108.729" cy="37.612" rx="0.604167" ry="0.597015" fill="#2DAFD7" fill-opacity="0.3"/>
<ellipse cx="113.563" cy="37.612" rx="0.604167" ry="0.597015" fill="#2DAFD7" fill-opacity="0.3"/>
<ellipse cx="118.396" cy="37.612" rx="0.604167" ry="0.597015" fill="#2DAFD7" fill-opacity="0.3"/>
<ellipse cx="47.1042" cy="49.5522" rx="0.604167" ry="0.597015" fill="#2DAFD7" fill-opacity="0.3"/>
<ellipse cx="42.2708" cy="49.5522" rx="0.604167" ry="0.597015" fill="#2DAFD7" fill-opacity="0.3"/>
<ellipse cx="37.4375" cy="49.5522" rx="0.604167" ry="0.597015" fill="#2DAFD7" fill-opacity="0.3"/>
<ellipse cx="76.1042" cy="67.4626" rx="0.604167" ry="0.597015" fill="#2DAFD7" fill-opacity="0.3"/>
<ellipse cx="76.1042" cy="10.1493" rx="0.604167" ry="0.597015" fill="#2DAFD7" fill-opacity="0.3"/>
<ellipse cx="76.1042" cy="5.37314" rx="0.604167" ry="0.597015" fill="#2DAFD7" fill-opacity="0.3"/>
<ellipse cx="76.1042" cy="0.597015" rx="0.604167" ry="0.597015" fill="#2DAFD7" fill-opacity="0.3"/>
<ellipse cx="76.1042" cy="67.4626" rx="0.604167" ry="0.597015" fill="#2DAFD7" fill-opacity="0.3"/>
<ellipse cx="76.1042" cy="10.1493" rx="0.604167" ry="0.597015" fill="#2DAFD7" fill-opacity="0.3"/>
<ellipse cx="76.1042" cy="5.37314" rx="0.604167" ry="0.597015" fill="#2DAFD7" fill-opacity="0.3"/>
<ellipse cx="76.1042" cy="0.597015" rx="0.604167" ry="0.597015" fill="#2DAFD7" fill-opacity="0.3"/>
<ellipse cx="68.8542" cy="67.4626" rx="0.604167" ry="0.597015" fill="#2DAFD7" fill-opacity="0.3"/>
<ellipse cx="70.0625" cy="10.1493" rx="0.604167" ry="0.597015" fill="#2DAFD7" fill-opacity="0.3"/>
<ellipse cx="70.0625" cy="5.37314" rx="0.604167" ry="0.597015" fill="#2DAFD7" fill-opacity="0.3"/>
<ellipse cx="70.0625" cy="0.597015" rx="0.604167" ry="0.597015" fill="#2DAFD7" fill-opacity="0.3"/>
<ellipse cx="68.8542" cy="67.4626" rx="0.604167" ry="0.597015" fill="#2DAFD7" fill-opacity="0.3"/>
<ellipse cx="70.0625" cy="10.1493" rx="0.604167" ry="0.597015" fill="#2DAFD7" fill-opacity="0.3"/>
<ellipse cx="70.0625" cy="5.37314" rx="0.604167" ry="0.597015" fill="#2DAFD7" fill-opacity="0.3"/>
<ellipse cx="70.0625" cy="0.597015" rx="0.604167" ry="0.597015" fill="#2DAFD7" fill-opacity="0.3"/>
<ellipse cx="62.8125" cy="67.4626" rx="0.604167" ry="0.597015" fill="#2DAFD7" fill-opacity="0.3"/>
<ellipse cx="62.8125" cy="10.1493" rx="0.604167" ry="0.597015" fill="#2DAFD7" fill-opacity="0.3"/>
<ellipse cx="62.8125" cy="5.37314" rx="0.604167" ry="0.597015" fill="#2DAFD7" fill-opacity="0.3"/>
<ellipse cx="57.9792" cy="67.4626" rx="0.604167" ry="0.597015" fill="#2DAFD7" fill-opacity="0.3"/>
<ellipse cx="57.9792" cy="10.1493" rx="0.604167" ry="0.597015" fill="#2DAFD7" fill-opacity="0.3"/>
<ellipse cx="57.9792" cy="5.37314" rx="0.604167" ry="0.597015" fill="#2DAFD7" fill-opacity="0.3"/>
<ellipse cx="51.9375" cy="67.4626" rx="0.604167" ry="0.597015" fill="#2DAFD7" fill-opacity="0.3"/>
<ellipse cx="51.9375" cy="10.1493" rx="0.604167" ry="0.597015" fill="#2DAFD7" fill-opacity="0.3"/>
<ellipse cx="51.9375" cy="67.4626" rx="0.604167" ry="0.597015" fill="#2DAFD7" fill-opacity="0.3"/>
<ellipse cx="51.9375" cy="10.1493" rx="0.604167" ry="0.597015" fill="#2DAFD7" fill-opacity="0.3"/>
<ellipse cx="103.896" cy="49.5522" rx="0.604167" ry="0.597015" fill="#2DAFD7" fill-opacity="0.3"/>
<ellipse cx="108.729" cy="49.5522" rx="0.604167" ry="0.597015" fill="#2DAFD7" fill-opacity="0.3"/>
<ellipse cx="113.563" cy="49.5522" rx="0.604167" ry="0.597015" fill="#2DAFD7" fill-opacity="0.3"/>
<ellipse cx="47.1042" cy="61.4925" rx="0.604167" ry="0.597015" fill="#2DAFD7" fill-opacity="0.3"/>
<ellipse cx="76.1042" cy="79.403" rx="0.604167" ry="0.597015" fill="#2DAFD7" fill-opacity="0.3"/>
<ellipse cx="76.1042" cy="79.403" rx="0.604167" ry="0.597015" fill="#2DAFD7" fill-opacity="0.3"/>
<ellipse cx="68.8542" cy="79.403" rx="0.604167" ry="0.597015" fill="#2DAFD7" fill-opacity="0.3"/>
<ellipse cx="68.8542" cy="79.403" rx="0.604167" ry="0.597015" fill="#2DAFD7" fill-opacity="0.3"/>
<ellipse cx="103.896" cy="61.4925" rx="0.604167" ry="0.597015" fill="#2DAFD7" fill-opacity="0.3"/>
<ellipse cx="99.0625" cy="61.4925" rx="0.604167" ry="0.597015" fill="#2DAFD7" fill-opacity="0.3"/>
<ellipse cx="51.9375" cy="61.4925" rx="0.604167" ry="0.597015" fill="#2DAFD7" fill-opacity="0.3"/>
<ellipse cx="98.4583" cy="20.2985" rx="1.20833" ry="1.19403" fill="#2DAFD7" fill-opacity="0.3"/>
<ellipse cx="93.625" cy="20.2985" rx="1.20833" ry="1.19403" fill="#2DAFD7" fill-opacity="0.3"/>
<ellipse cx="58.5833" cy="32.2387" rx="1.20833" ry="1.19403" fill="#2DAFD7" fill-opacity="0.3"/>
<ellipse cx="52.5417" cy="32.2387" rx="1.20833" ry="1.19403" fill="#2DAFD7" fill-opacity="0.3"/>
<ellipse cx="98.4583" cy="32.2387" rx="1.20833" ry="1.19403" fill="#2DAFD7" fill-opacity="0.3"/>
<ellipse cx="93.625" cy="32.2387" rx="1.20833" ry="1.19403" fill="#2DAFD7" fill-opacity="0.3"/>
<ellipse cx="58.5833" cy="44.1791" rx="1.20833" ry="1.19403" fill="#2DAFD7" fill-opacity="0.3"/>
<ellipse cx="52.5417" cy="44.1791" rx="1.20833" ry="1.19403" fill="#2DAFD7" fill-opacity="0.3"/>
<ellipse cx="98.4583" cy="44.1791" rx="1.20833" ry="1.19403" fill="#2DAFD7" fill-opacity="0.3"/>
<ellipse cx="93.625" cy="44.1791" rx="1.20833" ry="1.19403" fill="#2DAFD7" fill-opacity="0.3"/>
<ellipse cx="58.5833" cy="56.1194" rx="1.20833" ry="1.19403" fill="#2DAFD7" fill-opacity="0.3"/>
<ellipse cx="93.625" cy="56.1194" rx="1.20833" ry="1.19403" fill="#2DAFD7" fill-opacity="0.3"/>
<ellipse cx="58.5833" cy="26.2686" rx="1.20833" ry="1.19403" fill="#2DAFD7" fill-opacity="0.3"/>
<ellipse cx="52.5417" cy="26.2686" rx="1.20833" ry="1.19403" fill="#2DAFD7" fill-opacity="0.3"/>
<ellipse cx="98.4583" cy="26.2686" rx="1.20833" ry="1.19403" fill="#2DAFD7" fill-opacity="0.3"/>
<ellipse cx="93.625" cy="26.2686" rx="1.20833" ry="1.19403" fill="#2DAFD7" fill-opacity="0.3"/>
<ellipse cx="58.5833" cy="38.209" rx="1.20833" ry="1.19403" fill="#2DAFD7" fill-opacity="0.3"/>
<ellipse cx="52.5417" cy="38.209" rx="1.20833" ry="1.19403" fill="#2DAFD7" fill-opacity="0.3"/>
<ellipse cx="98.4583" cy="38.209" rx="1.20833" ry="1.19403" fill="#2DAFD7" fill-opacity="0.3"/>
<ellipse cx="93.625" cy="38.209" rx="1.20833" ry="1.19403" fill="#2DAFD7" fill-opacity="0.3"/>
<ellipse cx="58.5833" cy="50.1492" rx="1.20833" ry="1.19403" fill="#2DAFD7" fill-opacity="0.3"/>
<ellipse cx="52.5417" cy="50.1492" rx="1.20833" ry="1.19403" fill="#2DAFD7" fill-opacity="0.3"/>
<ellipse cx="98.4583" cy="50.1492" rx="1.20833" ry="1.19403" fill="#2DAFD7" fill-opacity="0.3"/>
<ellipse cx="93.625" cy="50.1492" rx="1.20833" ry="1.19403" fill="#2DAFD7" fill-opacity="0.3"/>
<ellipse cx="58.5833" cy="62.0895" rx="1.20833" ry="1.19403" fill="#2DAFD7" fill-opacity="0.3"/>
<ellipse cx="58.5833" cy="15.5224" rx="1.20833" ry="1.19403" fill="#2DAFD7" fill-opacity="0.3"/>
<ellipse cx="93.625" cy="62.0895" rx="1.20833" ry="1.19403" fill="#2DAFD7" fill-opacity="0.3"/>
<ellipse cx="93.625" cy="15.5224" rx="1.20833" ry="1.19403" fill="#2DAFD7" fill-opacity="0.3"/>
<ellipse cx="69.4583" cy="62.0895" rx="1.20833" ry="1.19403" fill="#2DAFD7" fill-opacity="0.3"/>
<ellipse cx="69.4583" cy="15.5224" rx="1.20833" ry="1.19403" fill="#2DAFD7" fill-opacity="0.3"/>
<ellipse cx="81.5417" cy="62.0895" rx="1.20833" ry="1.19403" fill="#2DAFD7" fill-opacity="0.3"/>
<ellipse cx="81.5417" cy="15.5224" rx="1.20833" ry="1.19403" fill="#2DAFD7" fill-opacity="0.3"/>
<ellipse cx="63.4167" cy="62.0895" rx="1.20833" ry="1.19403" fill="#2DAFD7" fill-opacity="0.3"/>
<ellipse cx="63.4167" cy="15.5224" rx="1.20833" ry="1.19403" fill="#2DAFD7" fill-opacity="0.3"/>
<ellipse cx="75.5" cy="62.0895" rx="1.20833" ry="1.19403" fill="#2DAFD7" fill-opacity="0.3"/>
<ellipse cx="75.5" cy="15.5224" rx="1.20833" ry="1.19403" fill="#2DAFD7" fill-opacity="0.3"/>
<ellipse cx="87.5833" cy="62.0895" rx="1.20833" ry="1.19403" fill="#2DAFD7" fill-opacity="0.3"/>
<ellipse cx="87.5833" cy="15.5224" rx="1.20833" ry="1.19403" fill="#2DAFD7" fill-opacity="0.3"/>
<ellipse cx="70.0625" cy="56.7165" rx="1.8125" ry="1.79104" fill="#2DAFD7" fill-opacity="0.3"/>
<ellipse cx="70.0625" cy="50.7462" rx="1.8125" ry="1.79104" fill="#2DAFD7" fill-opacity="0.3"/>
<ellipse cx="70.0625" cy="44.7762" rx="1.8125" ry="1.79104" fill="#2DAFD7" fill-opacity="0.3"/>
<ellipse cx="70.0625" cy="38.8061" rx="1.8125" ry="1.79104" fill="#2DAFD7" fill-opacity="0.3"/>
<ellipse cx="70.0625" cy="32.8357" rx="1.8125" ry="1.79104" fill="#2DAFD7" fill-opacity="0.3"/>
<ellipse cx="70.0625" cy="26.8656" rx="1.8125" ry="1.79104" fill="#2DAFD7" fill-opacity="0.3"/>
<ellipse cx="70.0625" cy="20.8955" rx="1.8125" ry="1.79104" fill="#2DAFD7" fill-opacity="0.3"/>
<ellipse cx="76.1041" cy="56.7165" rx="1.8125" ry="1.79104" fill="#2DAFD7" fill-opacity="0.3"/>
<ellipse cx="76.1041" cy="50.7462" rx="1.8125" ry="1.79104" fill="#2DAFD7" fill-opacity="0.3"/>
<ellipse cx="76.1041" cy="44.7762" rx="1.8125" ry="1.79104" fill="#2DAFD7" fill-opacity="0.3"/>
<ellipse cx="76.1041" cy="38.8061" rx="1.8125" ry="1.79104" fill="#2DAFD7" fill-opacity="0.3"/>
<ellipse cx="76.1041" cy="32.8357" rx="1.8125" ry="1.79104" fill="#2DAFD7" fill-opacity="0.3"/>
<ellipse cx="76.1041" cy="26.8656" rx="1.8125" ry="1.79104" fill="#2DAFD7" fill-opacity="0.3"/>
<ellipse cx="76.1041" cy="20.8955" rx="1.8125" ry="1.79104" fill="#2DAFD7" fill-opacity="0.3"/>
<ellipse cx="82.1459" cy="56.7165" rx="1.8125" ry="1.79104" fill="#2DAFD7" fill-opacity="0.3"/>
<ellipse cx="82.1459" cy="50.7462" rx="1.8125" ry="1.79104" fill="#2DAFD7" fill-opacity="0.3"/>
<ellipse cx="82.1459" cy="44.7762" rx="1.8125" ry="1.79104" fill="#2DAFD7" fill-opacity="0.3"/>
<ellipse cx="82.1459" cy="38.8061" rx="1.8125" ry="1.79104" fill="#2DAFD7" fill-opacity="0.3"/>
<ellipse cx="82.1459" cy="32.8357" rx="1.8125" ry="1.79104" fill="#2DAFD7" fill-opacity="0.3"/>
<ellipse cx="82.1459" cy="26.8656" rx="1.8125" ry="1.79104" fill="#2DAFD7" fill-opacity="0.3"/>
<ellipse cx="82.1459" cy="20.8955" rx="1.8125" ry="1.79104" fill="#2DAFD7" fill-opacity="0.3"/>
<ellipse cx="88.1875" cy="56.7165" rx="1.8125" ry="1.79104" fill="#2DAFD7" fill-opacity="0.3"/>
<ellipse cx="88.1875" cy="50.7462" rx="1.8125" ry="1.79104" fill="#2DAFD7" fill-opacity="0.3"/>
<ellipse cx="88.1875" cy="44.7762" rx="1.8125" ry="1.79104" fill="#2DAFD7" fill-opacity="0.3"/>
<ellipse cx="88.1875" cy="38.8061" rx="1.8125" ry="1.79104" fill="#2DAFD7" fill-opacity="0.3"/>
<ellipse cx="88.1875" cy="32.8357" rx="1.8125" ry="1.79104" fill="#2DAFD7" fill-opacity="0.3"/>
<ellipse cx="88.1875" cy="26.8656" rx="1.8125" ry="1.79104" fill="#2DAFD7" fill-opacity="0.3"/>
<ellipse cx="88.1875" cy="20.8955" rx="1.8125" ry="1.79104" fill="#2DAFD7" fill-opacity="0.3"/>
<path d="M5.976 48C5.8 48 5.656 47.944 5.544 47.832C5.432 47.72 5.376 47.576 5.376 47.4V34.968H1.104C0.928 34.968 0.784 34.912 0.672 34.8C0.56 34.672 0.504 34.528 0.504 34.368V31.8C0.504 31.624 0.56 31.48 0.672 31.368C0.784 31.256 0.928 31.2 1.104 31.2H14.016C14.192 31.2 14.336 31.256 14.448 31.368C14.56 31.48 14.616 31.624 14.616 31.8V34.368C14.616 34.528 14.56 34.672 14.448 34.8C14.336 34.912 14.192 34.968 14.016 34.968H9.744V47.4C9.744 47.576 9.688 47.72 9.576 47.832C9.464 47.944 9.32 48 9.144 48H5.976ZM23.4034 48.24C21.9314 48.24 20.6514 48 19.5634 47.52C18.4754 47.04 17.6274 46.32 17.0194 45.36C16.4114 44.384 16.0754 43.168 16.0114 41.712C15.9954 41.024 15.9874 40.336 15.9874 39.648C15.9874 38.96 15.9954 38.264 16.0114 37.56C16.0754 36.12 16.4114 34.912 17.0194 33.936C17.6434 32.944 18.4994 32.2 19.5874 31.704C20.6754 31.208 21.9474 30.96 23.4034 30.96C24.8434 30.96 26.1074 31.208 27.1954 31.704C28.2994 32.2 29.1634 32.944 29.7874 33.936C30.4114 34.912 30.7474 36.12 30.7954 37.56C30.8274 38.264 30.8434 38.96 30.8434 39.648C30.8434 40.336 30.8274 41.024 30.7954 41.712C30.7314 43.168 30.3954 44.384 29.7874 45.36C29.1794 46.32 28.3314 47.04 27.2434 47.52C26.1554 48 24.8754 48.24 23.4034 48.24ZM23.4034 44.784C24.2514 44.784 24.9394 44.528 25.4674 44.016C26.0114 43.504 26.2994 42.688 26.3314 41.568C26.3634 40.864 26.3794 40.2 26.3794 39.576C26.3794 38.952 26.3634 38.304 26.3314 37.632C26.2994 36.88 26.1554 36.272 25.8994 35.808C25.6594 35.328 25.3234 34.976 24.8914 34.752C24.4594 34.528 23.9634 34.416 23.4034 34.416C22.8594 34.416 22.3714 34.528 21.9394 34.752C21.5074 34.976 21.1634 35.328 20.9074 35.808C20.6514 36.272 20.5074 36.88 20.4754 37.632C20.4594 38.304 20.4514 38.952 20.4514 39.576C20.4514 40.2 20.4594 40.864 20.4754 41.568C20.5234 42.688 20.8114 43.504 21.3394 44.016C21.8674 44.528 22.5554 44.784 23.4034 44.784ZM34.2253 48C34.0493 48 33.9053 47.944 33.7933 47.832C33.6813 47.72 33.6253 47.576 33.6253 47.4V31.8C33.6253 31.624 33.6813 31.48 33.7933 31.368C33.9053 31.256 34.0493 31.2 34.2253 31.2H40.9453C42.2733 31.2 43.4253 31.408 44.4013 31.824C45.3933 32.224 46.1613 32.832 46.7053 33.648C47.2653 34.464 47.5453 35.496 47.5453 36.744C47.5453 37.976 47.2653 38.992 46.7053 39.792C46.1613 40.592 45.3933 41.184 44.4013 41.568C43.4253 41.952 42.2733 42.144 40.9453 42.144H38.0893V47.4C38.0893 47.576 38.0253 47.72 37.8973 47.832C37.7853 47.944 37.6413 48 37.4653 48H34.2253ZM38.0173 38.832H40.8253C41.5133 38.832 42.0573 38.656 42.4573 38.304C42.8733 37.952 43.0813 37.416 43.0813 36.696C43.0813 36.088 42.9053 35.576 42.5533 35.16C42.2013 34.744 41.6253 34.536 40.8253 34.536H38.0173V38.832ZM60.7018 48.24C59.1018 48.24 57.7738 48.016 56.7178 47.568C55.6618 47.104 54.8618 46.504 54.3178 45.768C53.7738 45.032 53.4858 44.248 53.4538 43.416C53.4538 43.288 53.5018 43.176 53.5978 43.08C53.7098 42.968 53.8378 42.912 53.9818 42.912H57.0058C57.2298 42.912 57.3978 42.952 57.5098 43.032C57.6378 43.112 57.7498 43.216 57.8458 43.344C57.9738 43.584 58.1498 43.816 58.3738 44.04C58.6138 44.264 58.9178 44.448 59.2858 44.592C59.6698 44.72 60.1418 44.784 60.7018 44.784C61.6298 44.784 62.3258 44.64 62.7898 44.352C63.2698 44.064 63.5098 43.672 63.5098 43.176C63.5098 42.824 63.3818 42.536 63.1258 42.312C62.8698 42.072 62.4538 41.864 61.8778 41.688C61.3178 41.496 60.5658 41.304 59.6218 41.112C58.4058 40.856 57.3658 40.528 56.5018 40.128C55.6538 39.712 55.0058 39.176 54.5578 38.52C54.1098 37.848 53.8858 37.016 53.8858 36.024C53.8858 35.048 54.1578 34.176 54.7018 33.408C55.2618 32.64 56.0378 32.04 57.0298 31.608C58.0218 31.176 59.1978 30.96 60.5578 30.96C61.6618 30.96 62.6298 31.104 63.4618 31.392C64.3098 31.68 65.0218 32.064 65.5978 32.544C66.1738 33.024 66.6058 33.536 66.8938 34.08C67.1978 34.608 67.3578 35.128 67.3738 35.64C67.3738 35.768 67.3258 35.888 67.2298 36C67.1338 36.096 67.0138 36.144 66.8698 36.144H63.7018C63.5258 36.144 63.3738 36.112 63.2458 36.048C63.1178 35.984 63.0058 35.88 62.9098 35.736C62.8138 35.384 62.5578 35.08 62.1418 34.824C61.7418 34.552 61.2138 34.416 60.5578 34.416C59.8538 34.416 59.3018 34.544 58.9018 34.8C58.5178 35.04 58.3258 35.416 58.3258 35.928C58.3258 36.248 58.4298 36.528 58.6378 36.768C58.8618 37.008 59.2218 37.216 59.7178 37.392C60.2298 37.568 60.9258 37.752 61.8058 37.944C63.2618 38.216 64.4378 38.56 65.3338 38.976C66.2298 39.376 66.8858 39.904 67.3018 40.56C67.7178 41.2 67.9258 42.008 67.9258 42.984C67.9258 44.072 67.6138 45.016 66.9898 45.816C66.3818 46.6 65.5338 47.2 64.4458 47.616C63.3578 48.032 62.1098 48.24 60.7018 48.24ZM70.9284 48C70.7524 48 70.6084 47.944 70.4964 47.832C70.3844 47.72 70.3284 47.576 70.3284 47.4V31.8C70.3284 31.624 70.3844 31.48 70.4964 31.368C70.6084 31.256 70.7524 31.2 70.9284 31.2H74.1444C74.3204 31.2 74.4644 31.256 74.5764 31.368C74.6884 31.48 74.7444 31.624 74.7444 31.8V47.4C74.7444 47.576 74.6884 47.72 74.5764 47.832C74.4644 47.944 74.3204 48 74.1444 48H70.9284ZM85.0457 48.24C83.5257 48.24 82.2137 47.992 81.1097 47.496C80.0217 46.984 79.1737 46.248 78.5657 45.288C77.9737 44.312 77.6457 43.128 77.5817 41.736C77.5657 41.048 77.5577 40.32 77.5577 39.552C77.5577 38.768 77.5657 38.024 77.5817 37.32C77.6457 35.96 77.9817 34.808 78.5897 33.864C79.1977 32.92 80.0537 32.2 81.1577 31.704C82.2617 31.208 83.5577 30.96 85.0457 30.96C86.2457 30.96 87.3097 31.112 88.2377 31.416C89.1657 31.704 89.9417 32.096 90.5657 32.592C91.2057 33.088 91.6857 33.632 92.0057 34.224C92.3417 34.816 92.5177 35.4 92.5337 35.976C92.5497 36.12 92.5017 36.24 92.3897 36.336C92.2937 36.432 92.1737 36.48 92.0297 36.48H88.5257C88.3497 36.48 88.2137 36.456 88.1177 36.408C88.0377 36.344 87.9657 36.256 87.9017 36.144C87.7897 35.904 87.6217 35.656 87.3977 35.4C87.1897 35.128 86.8937 34.896 86.5097 34.704C86.1417 34.512 85.6537 34.416 85.0457 34.416C84.1337 34.416 83.4137 34.656 82.8857 35.136C82.3737 35.616 82.0937 36.384 82.0457 37.44C81.9977 38.816 81.9977 40.208 82.0457 41.616C82.0937 42.736 82.3897 43.544 82.9337 44.04C83.4777 44.536 84.1977 44.784 85.0937 44.784C85.7017 44.784 86.2377 44.68 86.7017 44.472C87.1817 44.264 87.5577 43.944 87.8297 43.512C88.1017 43.064 88.2377 42.496 88.2377 41.808V41.352H85.9817C85.8057 41.352 85.6537 41.296 85.5257 41.184C85.4137 41.056 85.3577 40.904 85.3577 40.728V38.952C85.3577 38.776 85.4137 38.632 85.5257 38.52C85.6537 38.392 85.8057 38.328 85.9817 38.328H92.0297C92.2057 38.328 92.3497 38.392 92.4617 38.52C92.5737 38.632 92.6297 38.776 92.6297 38.952V41.688C92.6297 43.064 92.3177 44.24 91.6937 45.216C91.0697 46.192 90.1817 46.944 89.0297 47.472C87.8937 47.984 86.5657 48.24 85.0457 48.24ZM95.9831 48C95.8071 48 95.6631 47.944 95.5511 47.832C95.4391 47.72 95.3831 47.576 95.3831 47.4V31.8C95.3831 31.624 95.4391 31.48 95.5511 31.368C95.6631 31.256 95.8071 31.2 95.9831 31.2H98.5271C98.7991 31.2 98.9911 31.264 99.1031 31.392C99.2311 31.504 99.3111 31.592 99.3431 31.656L105.199 40.896V31.8C105.199 31.624 105.255 31.48 105.367 31.368C105.479 31.256 105.623 31.2 105.799 31.2H108.679C108.855 31.2 108.999 31.256 109.111 31.368C109.223 31.48 109.279 31.624 109.279 31.8V47.4C109.279 47.56 109.223 47.704 109.111 47.832C108.999 47.944 108.855 48 108.679 48H106.111C105.855 48 105.663 47.936 105.535 47.808C105.423 47.68 105.351 47.592 105.319 47.544L99.4631 38.664V47.4C99.4631 47.576 99.4071 47.72 99.2951 47.832C99.1831 47.944 99.0391 48 98.8631 48H95.9831ZM111.673 48C111.545 48 111.425 47.952 111.313 47.856C111.217 47.744 111.169 47.624 111.169 47.496C111.169 47.416 111.177 47.344 111.193 47.28L116.833 31.872C116.881 31.696 116.977 31.544 117.121 31.416C117.281 31.272 117.497 31.2 117.769 31.2H121.321C121.593 31.2 121.801 31.272 121.945 31.416C122.105 31.544 122.209 31.696 122.257 31.872L127.873 47.28C127.905 47.344 127.921 47.416 127.921 47.496C127.921 47.624 127.865 47.744 127.753 47.856C127.657 47.952 127.537 48 127.393 48H124.441C124.201 48 124.017 47.944 123.889 47.832C123.777 47.704 123.705 47.592 123.673 47.496L122.737 45.048H116.329L115.417 47.496C115.385 47.592 115.313 47.704 115.201 47.832C115.089 47.944 114.897 48 114.625 48H111.673ZM117.313 41.592H121.777L119.521 35.256L117.313 41.592ZM130.413 48C130.237 48 130.093 47.944 129.981 47.832C129.869 47.72 129.813 47.576 129.813 47.4V31.8C129.813 31.624 129.869 31.48 129.981 31.368C130.093 31.256 130.237 31.2 130.413 31.2H133.581C133.741 31.2 133.877 31.256 133.989 31.368C134.117 31.48 134.181 31.624 134.181 31.8V44.376H141.429C141.605 44.376 141.749 44.44 141.861 44.568C141.989 44.68 142.053 44.824 142.053 45V47.4C142.053 47.576 141.989 47.72 141.861 47.832C141.749 47.944 141.605 48 141.429 48H130.413ZM150.397 48.24C148.797 48.24 147.469 48.016 146.413 47.568C145.357 47.104 144.557 46.504 144.013 45.768C143.469 45.032 143.181 44.248 143.149 43.416C143.149 43.288 143.197 43.176 143.293 43.08C143.405 42.968 143.533 42.912 143.677 42.912H146.701C146.925 42.912 147.093 42.952 147.205 43.032C147.333 43.112 147.445 43.216 147.541 43.344C147.669 43.584 147.845 43.816 148.069 44.04C148.309 44.264 148.613 44.448 148.981 44.592C149.365 44.72 149.837 44.784 150.397 44.784C151.325 44.784 152.021 44.64 152.485 44.352C152.965 44.064 153.205 43.672 153.205 43.176C153.205 42.824 153.077 42.536 152.821 42.312C152.565 42.072 152.149 41.864 151.573 41.688C151.013 41.496 150.261 41.304 149.317 41.112C148.101 40.856 147.061 40.528 146.197 40.128C145.349 39.712 144.701 39.176 144.253 38.52C143.805 37.848 143.581 37.016 143.581 36.024C143.581 35.048 143.853 34.176 144.397 33.408C144.957 32.64 145.733 32.04 146.725 31.608C147.717 31.176 148.893 30.96 150.253 30.96C151.357 30.96 152.325 31.104 153.157 31.392C154.005 31.68 154.717 32.064 155.293 32.544C155.869 33.024 156.301 33.536 156.589 34.08C156.893 34.608 157.053 35.128 157.069 35.64C157.069 35.768 157.021 35.888 156.925 36C156.829 36.096 156.709 36.144 156.565 36.144H153.397C153.221 36.144 153.069 36.112 152.941 36.048C152.813 35.984 152.701 35.88 152.605 35.736C152.509 35.384 152.253 35.08 151.837 34.824C151.437 34.552 150.909 34.416 150.253 34.416C149.549 34.416 148.997 34.544 148.597 34.8C148.213 35.04 148.021 35.416 148.021 35.928C148.021 36.248 148.125 36.528 148.333 36.768C148.557 37.008 148.917 37.216 149.413 37.392C149.925 37.568 150.621 37.752 151.501 37.944C152.957 38.216 154.133 38.56 155.029 38.976C155.925 39.376 156.581 39.904 156.997 40.56C157.413 41.2 157.621 42.008 157.621 42.984C157.621 44.072 157.309 45.016 156.685 45.816C156.077 46.6 155.229 47.2 154.141 47.616C153.053 48.032 151.805 48.24 150.397 48.24Z" fill="#2DAFD7"/>
</svg>
